<mxfile host="app.diagrams.net" agent="Mozilla/5.0 (Windows NT 10.0; Win64; x64) AppleWebKit/537.36 (KHTML, like Gecko) Chrome/131.0.0.0 Safari/537.36" version="24.8.3">
  <diagram name="Page-1" id="zb1uVbRIfB_sIvaoN_AZ">
    <mxGraphModel grid="1" page="1" gridSize="10" guides="1" tooltips="1" connect="1" arrows="1" fold="1" pageScale="1" pageWidth="850" pageHeight="1100" math="0" shadow="0">
      <root>
        <mxCell id="0" />
        <mxCell id="1" parent="0" />
        <mxCell id="z7X8M9AXgJnyQS_Ovpoh-1" value="API Gateway" style="sketch=0;points=[[0,0,0],[0.25,0,0],[0.5,0,0],[0.75,0,0],[1,0,0],[0,1,0],[0.25,1,0],[0.5,1,0],[0.75,1,0],[1,1,0],[0,0.25,0],[0,0.5,0],[0,0.75,0],[1,0.25,0],[1,0.5,0],[1,0.75,0]];outlineConnect=0;fontColor=#232F3E;fillColor=#E7157B;strokeColor=#ffffff;dashed=0;verticalLabelPosition=bottom;verticalAlign=top;align=center;html=1;fontSize=12;fontStyle=0;aspect=fixed;shape=mxgraph.aws4.resourceIcon;resIcon=mxgraph.aws4.api_gateway;" vertex="1" parent="1">
          <mxGeometry x="70" y="170" width="60" height="60" as="geometry" />
        </mxCell>
        <mxCell id="z7X8M9AXgJnyQS_Ovpoh-6" value="" style="rounded=0;whiteSpace=wrap;html=1;gradientColor=none;fillColor=none;dashed=1;strokeColor=#FF0000;" vertex="1" parent="1">
          <mxGeometry x="230" y="70" width="120" height="300" as="geometry" />
        </mxCell>
        <mxCell id="z7X8M9AXgJnyQS_Ovpoh-7" value="API Endpoints" style="text;strokeColor=none;align=center;fillColor=none;html=1;verticalAlign=middle;whiteSpace=wrap;rounded=0;" vertex="1" parent="1">
          <mxGeometry x="240" y="80" width="100" height="10" as="geometry" />
        </mxCell>
        <mxCell id="z7X8M9AXgJnyQS_Ovpoh-8" value="Start Analysis" style="sketch=0;outlineConnect=0;fontColor=#232F3E;gradientColor=none;fillColor=#ED7100;strokeColor=none;dashed=0;verticalLabelPosition=bottom;verticalAlign=top;align=center;html=1;fontSize=12;fontStyle=0;aspect=fixed;pointerEvents=1;shape=mxgraph.aws4.lambda_function;" vertex="1" parent="1">
          <mxGeometry x="275" y="110" width="30" height="30" as="geometry" />
        </mxCell>
        <mxCell id="z7X8M9AXgJnyQS_Ovpoh-9" value="Query" style="sketch=0;outlineConnect=0;fontColor=#232F3E;gradientColor=none;fillColor=#ED7100;strokeColor=none;dashed=0;verticalLabelPosition=bottom;verticalAlign=top;align=center;html=1;fontSize=12;fontStyle=0;aspect=fixed;pointerEvents=1;shape=mxgraph.aws4.lambda_function;" vertex="1" parent="1">
          <mxGeometry x="275" y="194" width="30" height="30" as="geometry" />
        </mxCell>
        <mxCell id="z7X8M9AXgJnyQS_Ovpoh-10" value="Search" style="sketch=0;outlineConnect=0;fontColor=#232F3E;gradientColor=none;fillColor=#ED7100;strokeColor=none;dashed=0;verticalLabelPosition=bottom;verticalAlign=top;align=center;html=1;fontSize=12;fontStyle=0;aspect=fixed;pointerEvents=1;shape=mxgraph.aws4.lambda_function;" vertex="1" parent="1">
          <mxGeometry x="275" y="280" width="30" height="30" as="geometry" />
        </mxCell>
        <mxCell id="w_G7dmX32xbzuybD4Cux-4" style="edgeStyle=orthogonalEdgeStyle;rounded=0;orthogonalLoop=1;jettySize=auto;html=1;endSize=2;jumpSize=2;" edge="1" parent="1" target="z7X8M9AXgJnyQS_Ovpoh-13">
          <mxGeometry relative="1" as="geometry">
            <mxPoint x="500" y="160" as="sourcePoint" />
            <Array as="points">
              <mxPoint x="500" y="170" />
              <mxPoint x="422" y="170" />
            </Array>
          </mxGeometry>
        </mxCell>
        <mxCell id="z7X8M9AXgJnyQS_Ovpoh-12" value="&lt;font style=&quot;font-size: 11px;&quot;&gt;AWS Environmental&lt;/font&gt;&lt;div style=&quot;font-size: 11px;&quot;&gt;&lt;font style=&quot;font-size: 11px;&quot;&gt;&amp;nbsp;MediaConvert&lt;/font&gt;&lt;/div&gt;" style="sketch=0;points=[[0,0,0],[0.25,0,0],[0.5,0,0],[0.75,0,0],[1,0,0],[0,1,0],[0.25,1,0],[0.5,1,0],[0.75,1,0],[1,1,0],[0,0.25,0],[0,0.5,0],[0,0.75,0],[1,0.25,0],[1,0.5,0],[1,0.75,0]];outlineConnect=0;fontColor=#232F3E;fillColor=#ED7100;strokeColor=#ffffff;dashed=0;verticalLabelPosition=bottom;verticalAlign=top;align=center;html=1;fontSize=12;fontStyle=0;aspect=fixed;shape=mxgraph.aws4.resourceIcon;resIcon=mxgraph.aws4.elemental_mediaconvert;" vertex="1" parent="1">
          <mxGeometry x="470" y="60" width="68" height="68" as="geometry" />
        </mxCell>
        <mxCell id="z7X8M9AXgJnyQS_Ovpoh-13" value="S3 Bucket" style="sketch=0;outlineConnect=0;fontColor=#232F3E;gradientColor=none;fillColor=#7AA116;strokeColor=none;dashed=0;verticalLabelPosition=bottom;verticalAlign=top;align=center;html=1;fontSize=12;fontStyle=0;aspect=fixed;pointerEvents=1;shape=mxgraph.aws4.bucket;" vertex="1" parent="1">
          <mxGeometry x="400" y="248" width="44.23" height="46" as="geometry" />
        </mxCell>
        <mxCell id="z7X8M9AXgJnyQS_Ovpoh-14" value="" style="sketch=0;outlineConnect=0;fontColor=#232F3E;gradientColor=none;fillColor=#ED7100;strokeColor=none;dashed=0;verticalLabelPosition=bottom;verticalAlign=top;align=center;html=1;fontSize=12;fontStyle=0;aspect=fixed;pointerEvents=1;shape=mxgraph.aws4.lambda_function;" vertex="1" parent="1">
          <mxGeometry x="590" y="194" width="30" height="30" as="geometry" />
        </mxCell>
        <mxCell id="z7X8M9AXgJnyQS_Ovpoh-15" value="SNS Topic" style="sketch=0;points=[[0,0,0],[0.25,0,0],[0.5,0,0],[0.75,0,0],[1,0,0],[0,1,0],[0.25,1,0],[0.5,1,0],[0.75,1,0],[1,1,0],[0,0.25,0],[0,0.5,0],[0,0.75,0],[1,0.25,0],[1,0.5,0],[1,0.75,0]];outlineConnect=0;fontColor=#232F3E;fillColor=#E7157B;strokeColor=#ffffff;dashed=0;verticalLabelPosition=bottom;verticalAlign=top;align=center;html=1;fontSize=12;fontStyle=0;aspect=fixed;shape=mxgraph.aws4.resourceIcon;resIcon=mxgraph.aws4.sns;" vertex="1" parent="1">
          <mxGeometry x="580" y="280" width="50" height="50" as="geometry" />
        </mxCell>
        <mxCell id="z7X8M9AXgJnyQS_Ovpoh-16" value="" style="rounded=0;whiteSpace=wrap;html=1;gradientColor=none;fillColor=none;dashed=1;strokeColor=#4D4D4D;" vertex="1" parent="1">
          <mxGeometry x="660" y="70" width="120" height="300" as="geometry" />
        </mxCell>
        <mxCell id="z7X8M9AXgJnyQS_Ovpoh-17" value="Brand From Logo" style="sketch=0;outlineConnect=0;fontColor=#232F3E;gradientColor=none;fillColor=#ED7100;strokeColor=none;dashed=0;verticalLabelPosition=bottom;verticalAlign=top;align=center;html=1;fontSize=12;fontStyle=0;aspect=fixed;pointerEvents=1;shape=mxgraph.aws4.lambda_function;" vertex="1" parent="1">
          <mxGeometry x="710" y="90" width="25" height="25" as="geometry" />
        </mxCell>
        <mxCell id="z7X8M9AXgJnyQS_Ovpoh-18" value="Brand From Text" style="sketch=0;outlineConnect=0;fontColor=#232F3E;gradientColor=none;fillColor=#ED7100;strokeColor=none;dashed=0;verticalLabelPosition=bottom;verticalAlign=top;align=center;html=1;fontSize=12;fontStyle=0;aspect=fixed;pointerEvents=1;shape=mxgraph.aws4.lambda_function;" vertex="1" parent="1">
          <mxGeometry x="705" y="150" width="30" height="30" as="geometry" />
        </mxCell>
        <mxCell id="z7X8M9AXgJnyQS_Ovpoh-19" value="Celebrity Detection" style="sketch=0;outlineConnect=0;fontColor=#232F3E;gradientColor=none;fillColor=#ED7100;strokeColor=none;dashed=0;verticalLabelPosition=bottom;verticalAlign=top;align=center;html=1;fontSize=12;fontStyle=0;aspect=fixed;pointerEvents=1;shape=mxgraph.aws4.lambda_function;" vertex="1" parent="1">
          <mxGeometry x="705" y="224" width="30" height="30" as="geometry" />
        </mxCell>
        <mxCell id="z7X8M9AXgJnyQS_Ovpoh-20" value="Object and Scenario&amp;nbsp;&lt;div&gt;Classification&lt;/div&gt;" style="sketch=0;outlineConnect=0;fontColor=#232F3E;gradientColor=none;fillColor=#ED7100;strokeColor=none;dashed=0;verticalLabelPosition=bottom;verticalAlign=top;align=center;html=1;fontSize=12;fontStyle=0;aspect=fixed;pointerEvents=1;shape=mxgraph.aws4.lambda_function;" vertex="1" parent="1">
          <mxGeometry x="707.5" y="300" width="30" height="30" as="geometry" />
        </mxCell>
        <mxCell id="z7X8M9AXgJnyQS_Ovpoh-21" value="SNS Topic" style="sketch=0;points=[[0,0,0],[0.25,0,0],[0.5,0,0],[0.75,0,0],[1,0,0],[0,1,0],[0.25,1,0],[0.5,1,0],[0.75,1,0],[1,1,0],[0,0.25,0],[0,0.5,0],[0,0.75,0],[1,0.25,0],[1,0.5,0],[1,0.75,0]];outlineConnect=0;fontColor=#232F3E;fillColor=#E7157B;strokeColor=#ffffff;dashed=0;verticalLabelPosition=bottom;verticalAlign=top;align=center;html=1;fontSize=12;fontStyle=0;aspect=fixed;shape=mxgraph.aws4.resourceIcon;resIcon=mxgraph.aws4.sns;" vertex="1" parent="1">
          <mxGeometry x="850" y="77.5" width="50" height="50" as="geometry" />
        </mxCell>
        <mxCell id="z7X8M9AXgJnyQS_Ovpoh-22" value="" style="shape=actor;whiteSpace=wrap;html=1;" vertex="1" parent="1">
          <mxGeometry x="1000" y="81.5" width="30" height="42" as="geometry" />
        </mxCell>
        <mxCell id="z7X8M9AXgJnyQS_Ovpoh-24" value="Amazon DynamoDB" style="sketch=0;points=[[0,0,0],[0.25,0,0],[0.5,0,0],[0.75,0,0],[1,0,0],[0,1,0],[0.25,1,0],[0.5,1,0],[0.75,1,0],[1,1,0],[0,0.25,0],[0,0.5,0],[0,0.75,0],[1,0.25,0],[1,0.5,0],[1,0.75,0]];outlineConnect=0;fontColor=#232F3E;fillColor=#C925D1;strokeColor=#ffffff;dashed=0;verticalLabelPosition=bottom;verticalAlign=top;align=center;html=1;fontSize=12;fontStyle=0;aspect=fixed;shape=mxgraph.aws4.resourceIcon;resIcon=mxgraph.aws4.dynamodb;" vertex="1" parent="1">
          <mxGeometry x="994" y="170" width="36" height="36" as="geometry" />
        </mxCell>
        <mxCell id="w_G7dmX32xbzuybD4Cux-14" style="edgeStyle=orthogonalEdgeStyle;rounded=0;orthogonalLoop=1;jettySize=auto;html=1;" edge="1" parent="1" source="z7X8M9AXgJnyQS_Ovpoh-25">
          <mxGeometry relative="1" as="geometry">
            <mxPoint x="1000" y="345" as="targetPoint" />
          </mxGeometry>
        </mxCell>
        <mxCell id="z7X8M9AXgJnyQS_Ovpoh-25" value="Index" style="sketch=0;outlineConnect=0;fontColor=#232F3E;gradientColor=none;fillColor=#ED7100;strokeColor=none;dashed=0;verticalLabelPosition=bottom;verticalAlign=top;align=center;html=1;fontSize=12;fontStyle=0;aspect=fixed;pointerEvents=1;shape=mxgraph.aws4.lambda_function;" vertex="1" parent="1">
          <mxGeometry x="920" y="330" width="30" height="30" as="geometry" />
        </mxCell>
        <mxCell id="z7X8M9AXgJnyQS_Ovpoh-26" value="Amazon OpenSearch" style="sketch=0;points=[[0,0,0],[0.25,0,0],[0.5,0,0],[0.75,0,0],[1,0,0],[0,1,0],[0.25,1,0],[0.5,1,0],[0.75,1,0],[1,1,0],[0,0.25,0],[0,0.5,0],[0,0.75,0],[1,0.25,0],[1,0.5,0],[1,0.75,0]];outlineConnect=0;fontColor=#232F3E;fillColor=#8C4FFF;strokeColor=#ffffff;dashed=0;verticalLabelPosition=bottom;verticalAlign=top;align=center;html=1;fontSize=12;fontStyle=0;aspect=fixed;shape=mxgraph.aws4.resourceIcon;resIcon=mxgraph.aws4.elasticsearch_service;" vertex="1" parent="1">
          <mxGeometry x="1000" y="320" width="50" height="50" as="geometry" />
        </mxCell>
        <mxCell id="w_G7dmX32xbzuybD4Cux-1" style="edgeStyle=orthogonalEdgeStyle;rounded=0;orthogonalLoop=1;jettySize=auto;html=1;entryX=0;entryY=0.433;entryDx=0;entryDy=0;entryPerimeter=0;jumpStyle=gap;" edge="1" parent="1" source="z7X8M9AXgJnyQS_Ovpoh-1" target="z7X8M9AXgJnyQS_Ovpoh-6">
          <mxGeometry relative="1" as="geometry" />
        </mxCell>
        <mxCell id="w_G7dmX32xbzuybD4Cux-3" style="edgeStyle=orthogonalEdgeStyle;rounded=0;orthogonalLoop=1;jettySize=auto;html=1;entryX=0;entryY=0.5;entryDx=0;entryDy=0;entryPerimeter=0;" edge="1" parent="1" source="z7X8M9AXgJnyQS_Ovpoh-8" target="z7X8M9AXgJnyQS_Ovpoh-12">
          <mxGeometry relative="1" as="geometry" />
        </mxCell>
        <mxCell id="w_G7dmX32xbzuybD4Cux-5" value="" style="edgeStyle=orthogonalEdgeStyle;orthogonalLoop=1;jettySize=auto;html=1;rounded=0;" edge="1" parent="1" target="z7X8M9AXgJnyQS_Ovpoh-14">
          <mxGeometry width="80" relative="1" as="geometry">
            <mxPoint x="495" y="170" as="sourcePoint" />
            <mxPoint x="590" y="170" as="targetPoint" />
          </mxGeometry>
        </mxCell>
        <mxCell id="w_G7dmX32xbzuybD4Cux-7" value="" style="edgeStyle=none;orthogonalLoop=1;jettySize=auto;html=1;rounded=0;" edge="1" parent="1" source="z7X8M9AXgJnyQS_Ovpoh-14" target="z7X8M9AXgJnyQS_Ovpoh-15">
          <mxGeometry width="80" relative="1" as="geometry">
            <mxPoint x="553" y="234" as="sourcePoint" />
            <mxPoint x="633" y="234" as="targetPoint" />
            <Array as="points" />
          </mxGeometry>
        </mxCell>
        <mxCell id="w_G7dmX32xbzuybD4Cux-8" style="edgeStyle=orthogonalEdgeStyle;rounded=0;orthogonalLoop=1;jettySize=auto;html=1;entryX=0.03;entryY=0.785;entryDx=0;entryDy=0;entryPerimeter=0;" edge="1" parent="1" source="z7X8M9AXgJnyQS_Ovpoh-15" target="z7X8M9AXgJnyQS_Ovpoh-16">
          <mxGeometry relative="1" as="geometry" />
        </mxCell>
        <mxCell id="w_G7dmX32xbzuybD4Cux-9" value="" style="edgeStyle=none;orthogonalLoop=1;jettySize=auto;html=1;rounded=0;" edge="1" parent="1">
          <mxGeometry width="80" relative="1" as="geometry">
            <mxPoint x="785" y="100" as="sourcePoint" />
            <mxPoint x="840" y="100" as="targetPoint" />
            <Array as="points" />
          </mxGeometry>
        </mxCell>
        <mxCell id="w_G7dmX32xbzuybD4Cux-10" value="" style="edgeStyle=none;orthogonalLoop=1;jettySize=auto;html=1;rounded=0;" edge="1" parent="1">
          <mxGeometry width="80" relative="1" as="geometry">
            <mxPoint x="903" y="102" as="sourcePoint" />
            <mxPoint x="990" y="102" as="targetPoint" />
            <Array as="points" />
          </mxGeometry>
        </mxCell>
        <mxCell id="w_G7dmX32xbzuybD4Cux-11" value="" style="edgeStyle=orthogonalEdgeStyle;orthogonalLoop=1;jettySize=auto;html=1;rounded=0;entryX=0;entryY=0.5;entryDx=0;entryDy=0;entryPerimeter=0;" edge="1" parent="1" target="z7X8M9AXgJnyQS_Ovpoh-24">
          <mxGeometry width="80" relative="1" as="geometry">
            <mxPoint x="789" y="230" as="sourcePoint" />
            <mxPoint x="870" y="190" as="targetPoint" />
            <Array as="points">
              <mxPoint x="789" y="231" />
              <mxPoint x="871" y="231" />
              <mxPoint x="871" y="188" />
            </Array>
          </mxGeometry>
        </mxCell>
        <mxCell id="w_G7dmX32xbzuybD4Cux-12" value="" style="edgeStyle=orthogonalEdgeStyle;orthogonalLoop=1;jettySize=auto;html=1;rounded=0;" edge="1" parent="1" target="z7X8M9AXgJnyQS_Ovpoh-25">
          <mxGeometry width="80" relative="1" as="geometry">
            <mxPoint x="870" y="230" as="sourcePoint" />
            <mxPoint x="870" y="260" as="targetPoint" />
            <Array as="points">
              <mxPoint x="870" y="345" />
            </Array>
          </mxGeometry>
        </mxCell>
      </root>
    </mxGraphModel>
  </diagram>
</mxfile>
